<?xml version="1.0" encoding="UTF-8"?>
<svg xmlns="http://www.w3.org/2000/svg" xmlns:xlink="http://www.w3.org/1999/xlink" width="190px" height="41px" viewBox="0 0 193 41" version="1.1">
<g id="surface1">
<path style=" stroke:none;fill-rule:nonzero;fill:rgb(40.784314%,1.568627%,53.333333%);fill-opacity:1;" d="M 22.226562 39.203125 C 22.179688 39.152344 22.140625 39.101562 22.101562 39.046875 C 20.421875 36.238281 18.191406 33.800781 15.542969 31.882812 C 13.023438 29.996094 10.300781 28.394531 7.429688 27.105469 C 5.253906 26.105469 3.011719 25.257812 0.738281 24.445312 C 0.6875 24.445312 0.636719 24.402344 0.5625 24.367188 C 0.605469 24.3125 0.648438 24.257812 0.691406 24.207031 L 5.679688 19.183594 L 8.105469 16.714844 C 8.496094 16.320312 8.578125 16.308594 9.023438 16.632812 C 9.367188 16.871094 9.695312 17.132812 10.011719 17.40625 C 10.125 17.476562 10.203125 17.585938 10.234375 17.714844 C 10.265625 17.84375 10.242188 17.976562 10.171875 18.089844 C 10.144531 18.132812 10.109375 18.175781 10.066406 18.210938 C 9.894531 18.433594 9.710938 18.648438 9.507812 18.847656 L 5.605469 22.539062 C 5.464844 22.671875 5.34375 22.816406 5.214844 22.960938 C 5.085938 23.105469 5.121094 23.261719 5.292969 23.351562 C 5.464844 23.441406 5.722656 23.542969 5.941406 23.621094 C 8.917969 24.65625 11.71875 26.136719 14.25 28.019531 C 16.183594 29.492188 17.894531 31.238281 19.332031 33.199219 C 20.355469 34.585938 21.222656 36.085938 21.914062 37.667969 C 22.046875 37.980469 22.164062 38.296875 22.292969 38.605469 C 22.386719 38.800781 22.363281 39.035156 22.226562 39.203125 Z M 22.226562 39.203125 "/>
<path style=" stroke:none;fill-rule:nonzero;fill:rgb(40.784314%,1.568627%,53.333333%);fill-opacity:1;" d="M 21.253906 39.761719 C 20.097656 38.90625 18.847656 38.179688 17.535156 37.59375 C 15.746094 36.808594 13.875 36.222656 11.957031 35.851562 C 9.378906 35.371094 6.769531 35.058594 4.148438 34.914062 L 3.339844 34.84375 C 3.429688 34.675781 3.503906 34.535156 3.582031 34.402344 L 6.597656 29.03125 L 6.699219 28.863281 C 6.898438 28.550781 7.089844 28.511719 7.40625 28.707031 C 7.625 28.835938 7.851562 28.957031 8.082031 29.074219 C 8.152344 29.097656 8.210938 29.148438 8.246094 29.214844 C 8.28125 29.285156 8.285156 29.363281 8.261719 29.433594 L 8.261719 29.472656 C 8.1875 29.632812 8.105469 29.789062 8.007812 29.941406 L 6.164062 32.886719 C 5.84375 33.394531 5.933594 33.589844 6.535156 33.652344 C 8.164062 33.820312 9.785156 34.082031 11.382812 34.433594 C 13.859375 34.957031 16.238281 35.867188 18.425781 37.136719 C 19.441406 37.738281 20.367188 38.480469 21.175781 39.335938 C 21.253906 39.449219 21.367188 39.558594 21.253906 39.761719 Z M 21.253906 39.761719 "/>
<path style=" stroke:none;fill-rule:nonzero;fill:rgb(40.784314%,1.568627%,53.333333%);fill-opacity:1;" d="M 39.113281 26.304688 C 39.054688 24.363281 38.855469 22.425781 38.507812 20.511719 C 38.332031 19.578125 38.175781 18.640625 37.953125 17.71875 C 37.578125 16.320312 37.191406 14.929688 36.722656 13.550781 C 35.972656 11.390625 35.039062 9.300781 33.9375 7.300781 C 32.652344 4.9375 31.179688 2.683594 29.53125 0.558594 L 29.492188 0.46875 C 29.183594 -0.0078125 28.546875 -0.144531 28.070312 0.160156 C 26.726562 0.71875 25.382812 1.328125 24.03125 1.902344 L 19.492188 3.824219 L 15.644531 5.476562 L 10.066406 7.816406 L 4.988281 9.960938 L 3.058594 10.78125 L 3.332031 10.949219 C 5.332031 12.046875 7.246094 13.296875 9.058594 14.6875 C 11.496094 16.605469 13.707031 18.792969 15.644531 21.214844 C 19.144531 25.652344 21.597656 30.828125 22.816406 36.347656 C 22.964844 37.042969 23.089844 37.738281 23.21875 38.4375 C 23.34375 39.136719 23.460938 39.78125 23.539062 40.464844 C 23.601562 41.023438 23.726562 41.121094 24.230469 40.847656 L 25.972656 39.898438 L 35.496094 34.71875 L 38.242188 33.238281 C 38.664062 33.027344 38.9375 32.597656 38.957031 32.125 C 39.117188 30.1875 39.167969 28.246094 39.113281 26.304688 Z M 15.589844 7.917969 L 22.503906 5.023438 C 22.730469 4.960938 22.972656 5.074219 23.070312 5.289062 C 23.167969 5.503906 23.09375 5.761719 22.894531 5.890625 L 15.980469 8.804688 C 15.734375 8.90625 15.453125 8.792969 15.347656 8.546875 C 15.246094 8.300781 15.359375 8.019531 15.605469 7.917969 Z M 32.210938 35.382812 C 31.164062 35.390625 30.304688 34.546875 30.289062 33.496094 L 30.289062 33.351562 C 30.339844 32.347656 31.191406 31.574219 32.195312 31.621094 L 32.25 31.621094 C 32.753906 31.628906 33.230469 31.835938 33.578125 32.199219 C 33.925781 32.5625 34.113281 33.046875 34.101562 33.546875 C 34.066406 34.566406 33.230469 35.375 32.210938 35.382812 Z M 35.832031 28.683594 C 35.105469 29.070312 34.375 29.449219 33.652344 29.839844 L 26.871094 33.464844 C 26.507812 33.660156 26.152344 33.859375 25.753906 34.023438 C 25.359375 34.183594 25.15625 34.15625 25.011719 33.714844 C 24.761719 32.945312 24.535156 32.15625 24.265625 31.390625 C 23.9375 30.464844 23.609375 29.539062 23.230469 28.632812 C 22.390625 26.667969 21.398438 24.769531 20.261719 22.960938 C 18.085938 19.503906 15.402344 16.398438 12.296875 13.746094 L 11.460938 13.003906 L 12.082031 12.71875 C 15.160156 11.421875 18.234375 10.121094 21.308594 8.808594 L 28.726562 5.667969 L 29.027344 5.582031 C 29.34375 5.429688 29.726562 5.550781 29.898438 5.855469 C 30.222656 6.332031 30.511719 6.828125 30.796875 7.320312 C 31.804688 9.054688 32.679688 10.867188 33.417969 12.734375 C 33.875 13.921875 34.292969 15.128906 34.667969 16.339844 C 35.011719 17.457031 35.28125 18.613281 35.554688 19.75 C 35.675781 20.292969 35.773438 20.839844 35.84375 21.394531 C 35.992188 22.382812 36.160156 23.363281 36.246094 24.359375 C 36.34375 25.472656 36.375 26.628906 36.40625 27.769531 C 36.414062 28.15625 36.1875 28.511719 35.832031 28.667969 Z M 35.832031 28.683594 "/>
<path style=" stroke:none;fill-rule:nonzero;fill:rgb(40.784314%,1.568627%,53.333333%);fill-opacity:1;" d="M 76.78125 25.765625 C 76.359375 26.265625 75.996094 26.695312 75.667969 27.132812 C 75.023438 28.039062 74.179688 28.785156 73.203125 29.308594 C 71.78125 29.96875 70.675781 29.667969 69.855469 28.339844 C 69.648438 28.015625 69.476562 27.675781 69.25 27.277344 C 68.925781 27.644531 68.582031 27.996094 68.21875 28.328125 C 67.808594 28.699219 67.351562 29.011719 66.863281 29.265625 C 65.351562 29.960938 64.105469 29.175781 63.957031 27.511719 C 63.898438 26.316406 64.03125 25.117188 64.359375 23.96875 C 64.597656 22.945312 64.789062 21.914062 64.992188 20.890625 C 64.996094 20.847656 64.996094 20.800781 64.992188 20.757812 C 65.058594 20.441406 64.894531 20.121094 64.597656 19.992188 C 64.3125 19.859375 63.96875 19.960938 63.804688 20.230469 C 63.246094 20.933594 62.691406 21.621094 62.171875 22.363281 C 61.089844 24.054688 60.195312 25.855469 59.507812 27.742188 C 59.300781 28.429688 58.808594 28.996094 58.15625 29.296875 C 57.53125 29.539062 56.839844 29.5625 56.199219 29.367188 C 55.910156 29.289062 55.824219 29.085938 55.941406 28.71875 C 56.082031 28.253906 56.265625 27.800781 56.40625 27.332031 C 56.789062 26.054688 57.203125 24.777344 57.519531 23.480469 C 57.886719 21.992188 58.183594 20.484375 58.472656 18.976562 C 58.726562 17.652344 58.921875 16.320312 59.125 14.984375 C 59.1875 14.617188 59.1875 14.234375 59.25 13.867188 C 59.3125 13.265625 59.769531 12.777344 60.363281 12.671875 C 60.808594 12.597656 61.261719 12.597656 61.703125 12.671875 C 62.15625 12.746094 62.472656 13.164062 62.417969 13.621094 C 62.390625 14.007812 62.332031 14.394531 62.246094 14.773438 C 61.953125 16.171875 61.652344 17.5625 61.359375 18.988281 C 61.285156 19.339844 61.230469 19.703125 61.140625 20.058594 C 61.085938 20.289062 60.96875 20.511719 60.917969 20.746094 C 60.917969 20.867188 60.917969 21.089844 60.988281 21.136719 C 61.128906 21.195312 61.285156 21.195312 61.425781 21.136719 C 61.542969 21.082031 61.613281 20.925781 61.699219 20.808594 C 62.449219 19.722656 63.378906 18.769531 64.441406 17.988281 C 65.070312 17.523438 65.824219 17.261719 66.605469 17.226562 C 67.828125 17.199219 68.277344 18.070312 68.121094 19.070312 C 67.921875 20.523438 67.644531 21.96875 67.398438 23.417969 C 67.253906 24.257812 67.101562 25.09375 66.960938 25.933594 C 66.871094 26.246094 66.960938 26.589844 67.203125 26.8125 C 67.476562 27 67.839844 27 68.117188 26.8125 C 68.855469 26.429688 69.386719 25.738281 69.5625 24.921875 C 69.835938 23.628906 70.289062 22.382812 70.910156 21.214844 C 71.746094 19.699219 72.980469 18.445312 74.480469 17.585938 C 75.621094 16.941406 77 16.875 78.199219 17.40625 C 78.554688 17.578125 78.972656 17.5625 79.316406 17.363281 C 80.113281 16.898438 80.90625 17.128906 81.683594 17.425781 C 81.996094 17.542969 82.019531 17.84375 81.925781 18.132812 C 81.707031 18.78125 81.445312 19.417969 81.261719 20.074219 C 80.972656 21.078125 80.710938 22.082031 80.480469 23.089844 C 80.273438 24.007812 80.117188 24.933594 79.960938 25.882812 C 79.910156 26.117188 79.910156 26.363281 79.960938 26.601562 C 80.035156 26.9375 80.367188 27.148438 80.703125 27.078125 C 80.800781 27.054688 80.890625 27.007812 80.964844 26.949219 C 81.105469 26.859375 81.230469 26.753906 81.34375 26.636719 C 81.496094 26.484375 81.636719 26.328125 81.769531 26.160156 C 82.355469 25.441406 82.382812 25.433594 82.984375 26.160156 C 83.117188 25.730469 83.261719 25.328125 83.375 24.921875 C 83.742188 23.558594 84.128906 22.195312 84.433594 20.816406 C 84.550781 20.089844 84.625 19.351562 84.644531 18.613281 C 84.660156 18.382812 84.691406 18.152344 84.734375 17.925781 C 84.796875 17.609375 85.058594 17.367188 85.382812 17.335938 C 85.917969 17.25 86.457031 17.195312 87 17.167969 C 87.496094 17.203125 87.886719 17.609375 87.898438 18.109375 C 87.964844 18.765625 87.847656 19.421875 87.5625 20.015625 C 87.378906 20.378906 87.414062 20.539062 87.679688 20.683594 C 87.949219 20.828125 88.132812 20.734375 88.367188 20.421875 C 88.925781 19.683594 89.453125 18.941406 90.039062 18.246094 C 90.453125 17.773438 90.976562 17.414062 91.5625 17.199219 C 92.0625 16.992188 92.640625 17.230469 92.851562 17.730469 C 92.90625 17.867188 92.929688 18.011719 92.921875 18.15625 C 92.867188 19.191406 92.457031 20.175781 91.761719 20.945312 C 91.621094 21.128906 91.371094 21.183594 91.164062 21.074219 C 90.167969 20.683594 89.742188 20.824219 89.03125 21.632812 C 88.054688 22.847656 87.289062 24.214844 86.761719 25.679688 C 86.441406 26.480469 86.128906 27.28125 85.765625 28.070312 C 85.136719 29.445312 84.09375 29.789062 82.660156 29.386719 C 82.382812 29.308594 82.28125 29.171875 82.359375 28.828125 C 82.511719 28.203125 82.601562 27.5625 82.726562 26.824219 C 82.617188 26.871094 82.511719 26.929688 82.414062 27 C 82.167969 27.238281 81.941406 27.492188 81.730469 27.761719 C 81.242188 28.414062 80.609375 28.933594 79.878906 29.289062 C 79.339844 29.566406 78.710938 29.609375 78.136719 29.414062 C 77.171875 29.097656 76.917969 28.332031 76.878906 27.433594 C 76.878906 26.992188 76.851562 26.546875 76.828125 26.105469 C 76.820312 25.992188 76.804688 25.878906 76.78125 25.765625 Z M 72.605469 25.871094 L 72.605469 26.003906 C 72.605469 26.519531 72.652344 27 73.226562 27.195312 C 73.800781 27.390625 74.105469 27.039062 74.414062 26.675781 C 75.914062 24.851562 77.132812 22.808594 78.027344 20.621094 C 78.175781 20.355469 78.207031 20.039062 78.117188 19.746094 C 78.023438 19.453125 77.816406 19.210938 77.542969 19.078125 C 76.75 18.453125 75.601562 18.585938 74.976562 19.378906 L 74.910156 19.460938 C 73.472656 21.296875 72.667969 23.542969 72.605469 25.871094 Z M 72.605469 25.871094 "/>
<path style=" stroke:none;fill-rule:nonzero;fill:rgb(40.784314%,1.568627%,53.333333%);fill-opacity:1;" d="M 95.070312 29.515625 L 98.277344 29.804688 C 98.402344 29.84375 98.539062 29.824219 98.652344 29.761719 C 98.765625 29.695312 98.851562 29.585938 98.882812 29.460938 C 99.273438 28.308594 99.546875 27.117188 99.699219 25.910156 C 99.699219 25.863281 99.699219 25.816406 99.699219 25.78125 C 99.636719 25.660156 99.585938 25.492188 99.488281 25.453125 C 99.355469 25.4375 99.226562 25.492188 99.140625 25.589844 C 98.589844 26.359375 97.917969 27.027344 97.148438 27.574219 C 96.390625 28.105469 95.492188 28.402344 94.566406 28.425781 C 93.609375 28.496094 92.742188 27.855469 92.53125 26.914062 C 92.183594 25.648438 92.207031 24.304688 92.605469 23.050781 C 93.125 21.152344 94.265625 19.484375 95.851562 18.316406 C 97.03125 17.363281 98.554688 16.945312 100.054688 17.167969 C 101.042969 17.382812 102.0625 17.417969 103.0625 17.273438 C 103.316406 17.222656 103.578125 17.144531 103.84375 17.117188 C 104.472656 17.042969 104.761719 17.3125 104.710938 17.949219 C 104.683594 18.1875 104.632812 18.425781 104.5625 18.65625 C 104.222656 19.871094 103.84375 21.074219 103.539062 22.292969 C 103.238281 23.507812 103.023438 24.714844 102.753906 25.921875 C 102.503906 27.039062 102.273438 28.152344 101.96875 29.269531 C 101.394531 31.863281 99.183594 33.769531 96.535156 33.953125 C 94.796875 34.246094 93.007812 33.957031 91.449219 33.128906 C 91.160156 32.964844 90.898438 32.761719 90.667969 32.519531 C 90.320312 32.179688 90.277344 31.628906 90.574219 31.242188 C 91.066406 30.449219 91.882812 29.917969 92.804688 29.789062 C 93.71875 29.589844 94.578125 29.589844 95.070312 29.515625 Z M 95.566406 25.011719 C 95.515625 25.261719 95.570312 25.523438 95.71875 25.734375 C 95.863281 25.941406 96.089844 26.085938 96.339844 26.128906 C 96.601562 26.171875 96.867188 26.105469 97.078125 25.949219 C 97.277344 25.839844 97.464844 25.707031 97.636719 25.558594 C 99.074219 24.152344 100.195312 22.453125 100.917969 20.574219 C 101.097656 20.226562 101.101562 19.816406 100.921875 19.472656 C 100.746094 19.128906 100.410156 18.890625 100.027344 18.835938 C 98.945312 18.472656 97.757812 18.902344 97.160156 19.875 C 96.105469 21.382812 95.554688 23.1875 95.589844 25.027344 Z M 95.628906 32.445312 C 96.707031 32.496094 97.714844 31.917969 98.21875 30.960938 C 98.480469 30.539062 98.371094 30.292969 97.886719 30.226562 C 97.441406 30.148438 96.988281 30.097656 96.535156 30.074219 C 95.421875 30.039062 94.351562 30.019531 93.261719 30.074219 C 93.003906 30.136719 92.777344 30.296875 92.632812 30.519531 C 92.566406 30.621094 92.6875 30.917969 92.800781 31.078125 C 93.457031 31.980469 94.511719 32.5 95.628906 32.480469 Z M 95.628906 32.445312 "/>
<path style=" stroke:none;fill-rule:nonzero;fill:rgb(40.784314%,1.568627%,53.333333%);fill-opacity:1;" d="M 54.710938 25.582031 C 55.246094 26.246094 55.144531 27.21875 54.480469 27.757812 L 54.425781 27.800781 C 51.886719 29.746094 49.082031 30.472656 45.964844 29.476562 C 44.738281 29.066406 43.808594 28.0625 43.488281 26.808594 C 43.007812 25.320312 42.871094 23.742188 43.082031 22.191406 C 43.371094 19.644531 44.394531 17.238281 46.027344 15.261719 C 47.496094 13.335938 49.632812 12.03125 52.015625 11.605469 C 53.253906 11.390625 54.527344 11.488281 55.71875 11.898438 C 56.40625 12.085938 56.933594 12.640625 57.082031 13.339844 C 57.234375 14.039062 56.984375 14.761719 56.433594 15.21875 C 56.230469 15.40625 56.011719 15.574219 55.773438 15.722656 C 55.351562 15.996094 55.140625 15.917969 54.886719 15.488281 C 54.667969 15.074219 54.414062 14.683594 54.125 14.3125 C 53.25 13.132812 51.585938 12.882812 50.40625 13.757812 L 50.21875 13.957031 C 49.304688 14.730469 48.558594 15.679688 48.023438 16.75 C 47.46875 17.777344 47.070312 18.886719 46.839844 20.035156 C 46.554688 21.484375 46.507812 22.96875 46.703125 24.429688 C 46.746094 24.980469 46.855469 25.519531 47.03125 26.042969 C 47.390625 26.980469 48.261719 27.621094 49.261719 27.683594 C 50.328125 27.796875 51.402344 27.5625 52.324219 27.015625 C 53.144531 26.589844 53.902344 26.078125 54.710938 25.582031 Z M 54.710938 25.582031 "/>
<path style=" stroke:none;fill-rule:nonzero;fill:rgb(40.784314%,1.568627%,53.333333%);fill-opacity:1;" d="M 118.058594 31.722656 C 120.003906 31.855469 121.769531 30.582031 122.261719 28.691406 C 122.390625 28.164062 122.425781 27.621094 122.363281 27.082031 C 122.269531 26.015625 122.113281 24.953125 121.960938 23.894531 C 121.746094 22.007812 121.25 20.164062 120.488281 18.421875 C 120.230469 17.863281 120.253906 17.816406 120.816406 17.546875 C 121.320312 17.261719 121.882812 17.097656 122.457031 17.066406 C 123.171875 17.015625 123.816406 17.488281 123.984375 18.183594 C 124.074219 18.503906 124.136719 18.832031 124.164062 19.164062 C 124.296875 20.28125 124.414062 21.449219 124.546875 22.59375 C 124.664062 23.582031 124.789062 24.570312 124.90625 25.558594 C 124.894531 25.613281 124.894531 25.667969 124.90625 25.71875 C 124.96875 25.816406 125.035156 25.953125 125.125 25.972656 C 125.234375 25.964844 125.339844 25.90625 125.402344 25.816406 C 125.960938 24.949219 126.5625 24.105469 127.042969 23.195312 C 127.621094 22.109375 128.136719 20.992188 128.59375 19.847656 C 128.761719 19.304688 128.855469 18.742188 128.875 18.171875 C 128.859375 17.988281 128.804688 17.808594 128.710938 17.648438 C 128.542969 17.257812 128.632812 17.015625 129.042969 16.921875 C 129.816406 16.738281 130.625 16.96875 131.183594 17.53125 C 131.449219 17.808594 131.550781 18.203125 131.457031 18.574219 C 131.179688 19.726562 130.710938 20.828125 130.0625 21.824219 C 128.488281 24.582031 126.671875 27.199219 124.636719 29.640625 C 123.867188 30.554688 123.078125 31.453125 122.246094 32.300781 C 121.40625 33.203125 120.3125 33.824219 119.105469 34.070312 C 118.640625 34.15625 118.164062 34.136719 117.707031 34.023438 C 117.359375 33.898438 117.078125 33.644531 116.917969 33.3125 C 116.761719 32.980469 116.742188 32.597656 116.863281 32.25 C 116.910156 32.121094 116.972656 31.996094 117.058594 31.882812 C 117.179688 31.761719 117.335938 31.679688 117.503906 31.65625 C 117.691406 31.65625 117.875 31.679688 118.058594 31.722656 Z M 118.058594 31.722656 "/>
<path style=" stroke:none;fill-rule:nonzero;fill:rgb(40.784314%,1.568627%,53.333333%);fill-opacity:1;" d="M 119.210938 25.601562 C 119.175781 25.769531 119.121094 25.933594 119.054688 26.09375 C 118.328125 27.785156 116.832031 29.019531 115.035156 29.410156 C 114.730469 29.476562 114.417969 29.496094 114.109375 29.472656 C 113.222656 29.507812 112.476562 28.824219 112.4375 27.9375 C 112.429688 27.875 112.429688 27.8125 112.4375 27.753906 C 112.40625 27.132812 112.445312 26.511719 112.546875 25.898438 C 112.804688 24.601562 113.132812 23.320312 113.460938 22.035156 C 113.847656 20.527344 114.257812 19.03125 114.671875 17.523438 C 115.007812 16.289062 115.320312 15.050781 115.703125 13.828125 C 115.992188 12.890625 116.566406 12.539062 117.621094 12.515625 C 118.480469 12.421875 119.296875 12.90625 119.625 13.707031 C 119.859375 14.300781 119.882812 14.957031 119.691406 15.566406 C 119.09375 17.492188 118.457031 19.410156 117.171875 21.007812 C 116.59375 21.652344 116.1875 22.4375 115.992188 23.28125 C 115.789062 24.398438 115.671875 25.511719 115.566406 26.628906 C 115.542969 26.929688 115.761719 27.195312 116.0625 27.226562 C 116.15625 27.234375 116.253906 27.214844 116.339844 27.175781 C 116.691406 27.042969 117.027344 26.878906 117.347656 26.6875 C 117.953125 26.324219 118.542969 25.941406 119.140625 25.570312 Z M 116.773438 20.097656 C 117.105469 20.105469 117.402344 19.898438 117.515625 19.589844 C 117.804688 18.960938 118.113281 18.332031 118.398438 17.699219 C 118.867188 16.660156 119.179688 15.554688 119.324219 14.425781 C 119.355469 14.175781 119.257812 13.972656 119.015625 13.972656 C 118.84375 14.003906 118.695312 14.109375 118.613281 14.265625 C 118.484375 14.535156 118.378906 14.8125 118.296875 15.101562 C 117.890625 16.335938 117.484375 17.570312 117.09375 18.8125 C 116.96875 19.214844 116.886719 19.632812 116.773438 20.097656 Z M 116.773438 20.097656 "/>
<path style=" stroke:none;fill-rule:nonzero;fill:rgb(40.784314%,1.568627%,53.333333%);fill-opacity:1;" d="M 111.839844 25.394531 C 111.65625 26.351562 111.21875 27.242188 110.574219 27.96875 C 110.050781 28.5625 109.394531 29.023438 108.660156 29.320312 C 107.15625 29.933594 106.003906 29.203125 105.871094 27.550781 C 105.800781 26.519531 105.894531 25.484375 106.152344 24.484375 C 106.390625 23.425781 106.640625 22.363281 106.863281 21.292969 C 107.082031 20.320312 107.171875 19.320312 107.132812 18.324219 C 107.105469 17.765625 107.328125 17.523438 107.90625 17.492188 C 108.355469 17.492188 108.792969 17.457031 109.234375 17.429688 C 109.824219 17.363281 110.355469 17.789062 110.421875 18.378906 C 110.445312 18.535156 110.429688 18.691406 110.378906 18.84375 C 110 20.417969 109.597656 21.992188 109.261719 23.574219 C 109.113281 24.433594 109.003906 25.296875 108.945312 26.167969 C 108.9375 26.332031 108.96875 26.496094 109.027344 26.652344 C 109.070312 26.921875 109.316406 27.105469 109.585938 27.066406 C 109.710938 27.046875 109.828125 26.980469 109.902344 26.882812 C 110.253906 26.558594 110.574219 26.207031 110.929688 25.894531 C 111.1875 25.664062 111.488281 25.480469 111.753906 25.273438 C 111.78125 25.316406 111.808594 25.355469 111.839844 25.394531 Z M 111.839844 25.394531 "/>
<path style=" stroke:none;fill-rule:nonzero;fill:rgb(40.784314%,1.568627%,53.333333%);fill-opacity:1;" d="M 108.167969 14.6875 C 108.304688 13.941406 108.425781 13.191406 108.570312 12.457031 C 108.609375 12.105469 108.894531 11.839844 109.246094 11.820312 C 110.128906 11.769531 111.007812 11.722656 111.890625 11.75 C 112.445312 11.75 112.609375 12.082031 112.390625 12.566406 C 112.011719 13.539062 111.472656 14.4375 110.796875 15.230469 C 110.242188 15.796875 109.445312 16.054688 108.664062 15.921875 C 108.4375 15.929688 108.242188 15.753906 108.230469 15.527344 C 108.226562 15.496094 108.226562 15.46875 108.230469 15.441406 C 108.230469 15.195312 108.230469 14.957031 108.230469 14.710938 Z M 108.167969 14.6875 "/>
<path style=" stroke:none;fill-rule:nonzero;fill:rgb(40.784314%,1.568627%,53.333333%);fill-opacity:1;" d="M 136.734375 29.679688 C 135.691406 29.679688 135.167969 29.269531 135.167969 28.449219 C 135.167969 27.949219 135.601562 25.800781 136.464844 22.011719 C 137.332031 18.222656 137.769531 15.910156 137.777344 15.074219 C 137.789062 14.734375 137.722656 14.398438 137.582031 14.089844 C 139.019531 13.769531 140.492188 13.613281 141.964844 13.628906 C 143.949219 13.628906 145.472656 14 146.527344 14.746094 C 147.566406 15.464844 148.164062 16.671875 148.105469 17.9375 C 148.148438 19.476562 147.433594 20.9375 146.191406 21.84375 C 144.957031 22.8125 143.433594 23.332031 141.863281 23.3125 C 140.871094 23.3125 140.355469 22.753906 140.324219 21.699219 C 141.472656 21.726562 142.597656 21.378906 143.527344 20.707031 C 144.332031 20.066406 144.78125 19.078125 144.726562 18.050781 C 144.769531 17.335938 144.464844 16.644531 143.910156 16.191406 C 143.257812 15.742188 142.472656 15.523438 141.679688 15.566406 L 141.242188 15.566406 C 141.042969 16.542969 140.707031 18.082031 140.238281 20.183594 C 139.761719 22.273438 139.382812 24.039062 139.085938 25.457031 C 138.863281 26.390625 138.714844 27.339844 138.648438 28.300781 C 138.625 28.597656 138.691406 28.894531 138.84375 29.152344 C 138.195312 29.503906 137.46875 29.6875 136.734375 29.679688 Z M 136.734375 29.679688 "/>
<path style=" stroke:none;fill-rule:nonzero;fill:rgb(40.784314%,1.568627%,53.333333%);fill-opacity:1;" d="M 150.386719 29.679688 C 149.6875 29.710938 149.019531 29.398438 148.589844 28.847656 C 148.121094 28.171875 147.890625 27.359375 147.9375 26.539062 C 147.941406 24.941406 148.277344 23.359375 148.929688 21.902344 C 149.527344 20.492188 150.449219 19.238281 151.617188 18.25 C 152.617188 17.363281 153.898438 16.863281 155.234375 16.84375 C 156.058594 16.832031 156.859375 17.140625 157.464844 17.703125 C 158.0625 17.207031 158.808594 16.921875 159.589844 16.894531 C 160.207031 16.894531 160.519531 17.101562 160.519531 17.507812 C 160.519531 17.585938 160.164062 18.984375 159.453125 21.707031 C 158.746094 24.425781 158.398438 26.175781 158.410156 26.960938 C 158.355469 27.65625 158.78125 28.304688 159.441406 28.527344 C 158.839844 29.214844 157.980469 29.632812 157.066406 29.679688 C 156.570312 29.710938 156.078125 29.535156 155.710938 29.199219 C 155.375 28.835938 155.203125 28.355469 155.234375 27.863281 C 155.300781 26.820312 155.515625 25.789062 155.867188 24.804688 C 155.066406 26.136719 154.082031 27.355469 152.945312 28.417969 C 151.976562 29.257812 151.121094 29.679688 150.386719 29.679688 Z M 151.996094 27.175781 C 152.554688 27.175781 153.265625 26.664062 154.078125 25.625 C 154.914062 24.570312 155.621094 23.421875 156.179688 22.195312 C 156.644531 21.332031 156.9375 20.382812 157.039062 19.40625 C 157 19.054688 156.792969 18.742188 156.480469 18.574219 C 156.210938 18.355469 155.886719 18.21875 155.539062 18.183594 C 154.953125 18.183594 154.316406 18.574219 153.644531 19.34375 C 152.894531 20.230469 152.304688 21.242188 151.902344 22.332031 C 151.445312 23.496094 151.207031 24.730469 151.195312 25.980469 C 151.195312 26.777344 151.460938 27.175781 151.996094 27.175781 Z M 151.996094 27.175781 "/>
<path style=" stroke:none;fill-rule:nonzero;fill:rgb(40.784314%,1.568627%,53.333333%);fill-opacity:1;" d="M 164.234375 35.601562 C 163.21875 35.601562 162.714844 35.261719 162.714844 34.574219 C 162.773438 33.980469 162.964844 33.410156 163.273438 32.898438 C 163.636719 32.203125 164.34375 31.035156 165.40625 29.382812 C 164.988281 29.414062 164.570312 29.324219 164.207031 29.113281 C 163.910156 28.832031 163.726562 28.445312 163.691406 28.035156 C 163.605469 27.546875 163.476562 26.429688 163.300781 24.6875 C 163.128906 22.945312 163.003906 21.816406 162.933594 21.304688 C 162.605469 19.359375 162.234375 18.246094 161.820312 17.953125 C 162.507812 17.398438 163.355469 17.078125 164.238281 17.042969 C 164.664062 17.011719 165.082031 17.183594 165.355469 17.511719 C 165.664062 17.972656 165.855469 18.503906 165.914062 19.054688 C 166.109375 20.082031 166.386719 22.777344 166.742188 27.136719 C 169.347656 21.925781 170.648438 18.578125 170.648438 17.089844 C 170.648438 16.667969 170.566406 16.253906 170.402344 15.867188 C 170.886719 15.640625 171.414062 15.523438 171.945312 15.519531 C 172.761719 15.519531 173.167969 15.945312 173.167969 16.792969 C 173.164062 17.085938 173.128906 17.378906 173.054688 17.664062 C 172.964844 18.042969 172.84375 18.417969 172.695312 18.78125 C 172.519531 19.203125 172.359375 19.589844 172.203125 19.941406 C 172.046875 20.292969 171.816406 20.757812 171.515625 21.335938 C 171.214844 21.917969 170.960938 22.386719 170.769531 22.746094 L 169.90625 24.351562 L 169.007812 25.953125 C 167.570312 28.585938 166.566406 30.542969 165.996094 31.820312 C 165.527344 32.742188 165.234375 33.746094 165.136719 34.773438 C 165.132812 35.011719 165.183594 35.242188 165.28125 35.457031 C 164.9375 35.546875 164.585938 35.59375 164.234375 35.601562 Z M 164.234375 35.601562 "/>
<path style=" stroke:none;fill-rule:nonzero;fill:rgb(40.784314%,1.568627%,53.333333%);fill-opacity:1;" d="M 179.769531 13.398438 L 177.273438 13.398438 L 177.273438 12.511719 L 183.34375 12.511719 L 183.34375 13.398438 L 180.839844 13.398438 L 180.839844 20.722656 L 179.769531 20.722656 Z M 179.769531 13.398438 "/>
<path style=" stroke:none;fill-rule:nonzero;fill:rgb(40.784314%,1.568627%,53.333333%);fill-opacity:1;" d="M 191.175781 17.117188 C 191.113281 15.972656 191.042969 14.59375 191.050781 13.570312 L 191.015625 13.570312 C 190.734375 14.539062 190.394531 15.558594 189.980469 16.691406 L 188.527344 20.65625 L 187.722656 20.65625 L 186.394531 16.75 C 186.003906 15.59375 185.683594 14.515625 185.449219 13.554688 C 185.421875 14.578125 185.359375 15.957031 185.285156 17.183594 L 185.070312 20.707031 L 184.066406 20.707031 L 184.621094 12.496094 L 185.972656 12.496094 L 187.371094 16.46875 C 187.710938 17.480469 187.992188 18.378906 188.199219 19.234375 L 188.238281 19.234375 C 188.441406 18.40625 188.734375 17.503906 189.09375 16.46875 L 190.554688 12.496094 L 191.910156 12.496094 L 192.429688 20.722656 L 191.398438 20.722656 Z M 191.175781 17.117188 "/>
</g>
</svg>
