<svg version="1.2" xmlns="http://www.w3.org/2000/svg" viewBox="0 0 50 32" width="50" height="32">
	<title>cib-card-svg</title>
	<style>
		.s0 { fill: #680488 } 
		.s1 { fill: #ffffff } 
	</style>
	<path id="Shape 1" class="s0" d="m3 0h44c1.7 0 3 1.3 3 3v26c0 1.7-1.3 3-3 3h-44c-1.7 0-3-1.3-3-3v-26c0-1.7 1.3-3 3-3z"/>
	<path fill-rule="evenodd" class="s1" d="m29 21v-1h-3v-3h3v2h2v2h-1v2h-2v2h-2v-3h2v-1zm5 4h-4v-2h2v-2h2zm-18-18h8v8h-8zm2 2v4h4v-4zm8-2h8v8h-8zm2 2v4h4v-4zm-12 8h8v8h-8zm2 2v4h4v-4zm13-2h3v2h-3zm-12-7h2v2h-2zm0 10h2v2h-2zm10-10h2v2h-2z"/>
</svg>